name Walk2.mot
datacolumns 19
datarows 25
range 2.54500000 2.66500000
endheader

                time	   L_ground_force_vx	   L_ground_force_vy	   L_ground_force_vz	   L_ground_force_px	   L_ground_force_py	   L_ground_force_pz	   R_ground_force_vx	   R_ground_force_vy	   R_ground_force_vz	   R_ground_force_px	   R_ground_force_py	   R_ground_force_pz	   L_ground_torque_x	   L_ground_torque_y	   L_ground_torque_z	   R_ground_torque_x	   R_ground_torque_y	   R_ground_torque_z	
          2.54500000	          0.00000000	          0.00000000	          0.00000000	         -0.00000000	          0.00000000	         -0.00000000	          0.75580879	          8.47261729	          0.84753062	          0.17880479	          0.00000000	          0.04781532	          0.00000000	          0.00000000	          0.00000000	          0.00000000	         -0.49810954	          0.00000000	
          2.55000000	          0.00000000	          0.00000000	         -0.00000000	         -0.00000000	          0.00000000	         -0.00000000	         -0.76494104	          0.93414651	          0.66600934	          0.13457624	          0.00000000	          0.03543515	          0.00000000	          0.00000000	          0.00000000	          0.00000000	         -0.13016288	          0.00000000	
          2.55500000	          0.00000000	          0.00000000	         -0.00000000	         -0.00000000	          0.00000000	         -0.00000000	         -1.67967086	         -3.97400846	          0.49692998	          0.09556998	          0.00000000	          0.02469350	          0.00000000	          0.00000000	          0.00000000	          0.00000000	          0.11608849	          0.00000000	
          2.56000000	          0.00000000	          0.00000000	         -0.00000000	         -0.00000000	          0.00000000	         -0.00000000	         -2.13342772	         -6.80721714	          0.34920150	          0.06299759	          0.00000000	          0.01585213	          0.00000000	          0.00000000	          0.00000000	          0.00000000	          0.26482353	          0.00000000	
          2.56500000	          0.00000000	          0.00000000	         -0.00000000	         -0.00000000	          0.00000000	         -0.00000000	         -2.25568487	         -8.08573042	          0.22684848	          0.03712720	          0.00000000	          0.00892862	          0.00000000	          0.00000000	          0.00000000	          0.00000000	          0.33926009	          0.00000000	
          2.57000000	          0.00000000	          0.00000000	         -0.00000000	         -0.00000000	          0.00000000	         -0.00000000	         -2.15568861	         -8.26613271	          0.13044488	          0.01760071	          0.00000000	          0.00378256	          0.00000000	          0.00000000	          0.00000000	          0.00000000	          0.36016344	          0.00000000	
          2.57500000	          0.00000000	          0.00000000	         -0.00000000	         -0.00000000	          0.00000000	         -0.00000000	         -1.92107404	         -7.72807005	          0.05830651	          0.00368674	          0.00000000	          0.00018333	          0.00000000	          0.00000000	          0.00000000	          0.00000000	          0.34508378	          0.00000000	
          2.58000000	          0.00000000	          0.00000000	         -0.00000000	         -0.00000000	          0.00000000	         -0.00000000	         -1.61868654	         -6.77182399	          0.00743423	         -0.00552759	          0.00000000	         -0.00213928	          0.00000000	          0.00000000	          0.00000000	          0.00000000	          0.30812153	          0.00000000	
          2.58500000	          0.00000000	         -0.00000000	         -0.00000000	         -0.00000000	          0.00000000	         -0.00000000	         -1.29675275	         -5.62303252	         -0.02577714	         -0.01099940	          0.00000000	         -0.00345953	          0.00000000	         -0.00000000	          0.00000000	          0.00000000	          0.26004967	          0.00000000	
          2.59000000	         -0.00000000	         -0.00000000	         -0.00000000	         -0.00000000	          0.00000000	         -0.00000000	         -0.98774539	         -4.44162093	         -0.04503628	         -0.01363844	          0.00000000	         -0.00403258	          0.00000000	         -0.00000000	          0.00000000	          0.00000000	          0.20865534	          0.00000000	
          2.59500000	         -0.00000000	         -0.00000000	         -0.00000000	         -0.00000000	          0.00000000	         -0.00000000	         -0.71146624	         -3.33272604	         -0.05382497	         -0.01425218	          0.00000000	         -0.00408113	          0.00000000	         -0.00000000	          0.00000000	          0.00000000	          0.15919503	          0.00000000	
          2.60000000	         -0.00000000	         -0.00000000	         -0.00000000	         -0.00000000	          0.00000000	         -0.00000000	         -0.47802539	         -2.35803490	         -0.05520409	         -0.01351858	          0.00000000	         -0.00378950	          0.00000000	         -0.00000000	          0.00000000	          0.00000000	          0.11488669	          0.00000000	
          2.60500000	         -0.00000000	         -0.00000000	         -0.00000000	          0.00000000	          0.00000000	         -0.00000000	         -0.29051827	         -1.54649231	         -0.05172251	         -0.01197898	          0.00000000	         -0.00330278	          0.00000000	         -0.00000000	          0.00000000	          0.00000000	          0.07738646	          0.00000000	
          2.61000000	         -0.00000000	         -0.00000000	         -0.00000000	          0.00000000	          0.00000000	          0.00000000	         -0.14729711	         -0.90375692	         -0.04539922	         -0.01004427	          0.00000000	         -0.00272945	          0.00000000	         -0.00000000	          0.00000000	          0.00000000	          0.04721796	          0.00000000	
          2.61500000	         -0.00000000	         -0.00000000	         -0.00000000	          0.00000000	          0.00000000	          0.00000000	         -0.04380273	         -0.42010692	         -0.03775368	         -0.00800920	          0.00000000	         -0.00214591	          0.00000000	         -0.00000000	          0.00000000	          0.00000000	          0.02413711	          0.00000000	
          2.62000000	         -0.00000000	         -0.00000000	          0.00000000	          0.00000000	          0.00000000	          0.00000000	          0.02603048	         -0.07672617	         -0.02986489	         -0.00607072	          0.00000000	         -0.00160199	          0.00000000	         -0.00000000	          0.00000000	          0.00000000	          0.00742686	          0.00000000	
          2.62500000	         -0.00000000	         -0.00000000	          0.00000000	          0.00000000	          0.00000000	          0.00000000	          0.06875447	          0.14954537	         -0.02244401	         -0.00434748	          0.00000000	         -0.00112648	          0.00000000	         -0.00000000	          0.00000000	          0.00000000	         -0.00387648	          0.00000000	
          2.63000000	         -0.00000000	         -0.00000000	          0.00000000	          0.00000000	          0.00000000	          0.00000000	          0.09071488	          0.28282169	         -0.01591009	         -0.00289858	          0.00000000	         -0.00073246	          0.00000000	         -0.00000000	          0.00000000	          0.00000000	         -0.01081851	          0.00000000	
          2.63500000	         -0.00000000	         -0.00000000	          0.00000000	          0.00000000	          0.00000000	          0.00000000	          0.09762323	          0.34592144	         -0.01046172	         -0.00174018	          0.00000000	         -0.00042185	          0.00000000	         -0.00000000	          0.00000000	          0.00000000	         -0.01441468	          0.00000000	
          2.64000000	         -0.00000000	         -0.00000000	          0.00000000	          0.00000000	          0.00000000	          0.00000000	          0.09433259	          0.35902788	         -0.00614039	         -0.00085969	          0.00000000	         -0.00018930	          0.00000000	         -0.00000000	          0.00000000	          0.00000000	         -0.01558081	          0.00000000	
          2.64500000	         -0.00000000	         -0.00000000	          0.00000000	          0.00000000	          0.00000000	          0.00000000	          0.08476181	          0.33903802	         -0.00288357	         -0.00022706	          0.00000000	         -0.00002520	          0.00000000	         -0.00000000	          0.00000000	          0.00000000	         -0.01509637	          0.00000000	
          2.65000000	         -0.00000000	         -0.00000000	          0.00000000	          0.00000000	          0.00000000	          0.00000000	          0.07192061	          0.29940511	         -0.00056699	          0.00019659	          0.00000000	          0.00008203	          0.00000000	         -0.00000000	          0.00000000	          0.00000000	         -0.01359177	          0.00000000	
          2.65500000	         -0.00000000	          0.00000000	          0.00000000	          0.00000000	          0.00000000	          0.00000000	          0.05799775	          0.25030996	          0.00096344	          0.00045272	          0.00000000	          0.00014431	          0.00000000	          0.00000000	          0.00000000	          0.00000000	         -0.01155196	          0.00000000	
          2.66000000	          0.00000000	          0.00000000	          0.00000000	          0.00000000	          0.00000000	          0.00000000	          0.04448237	          0.19902971	          0.00186868	          0.00058117	          0.00000000	          0.00017283	          0.00000000	          0.00000000	          0.00000000	          0.00000000	         -0.00933024	          0.00000000	
          2.66500000	          0.00000000	          0.00000000	          0.00000000	          0.00000000	          0.00000000	          0.00000000	          0.03229720	          0.15040383	          0.00230140	          0.00061758	          0.00000000	          0.00017745	          0.00000000	          0.00000000	          0.00000000	          0.00000000	         -0.00716759	          0.00000000	
